{"title":"Ghawy Mashakel 1980 Dvd x264-10bit AC3 -alrmothe","uid":8602162,"size":2184988120,"categoryP":"video","categoryS":"movies","magnet":"?xt=urn:btih:71b388934131d38f62f3ddc55c95062435c01705&amp;dn=Ghawy+Mashakel+1980+Dvd+x264-10bit+AC3+-alrmothe&amp;tr=udp%3A%2F%2Ftracker.openbittorrent.com%3A80&amp;tr=udp%3A%2F%2Fopen.demonii.com%3A1337&amp;tr=udp%3A%2F%2Ftracker.coppersurfer.tk%3A6969&amp;tr=udp%3A%2F%2Fexodus.desync.com%3A6969","seeders":1,"leechers":0,"uploader":".alrmothe","files":21,"time":1371913386,"description":"******************************************************\n\nGhawy Mashakel 1980 Dvd x264-10bit AC3 -alrmothe\n\n******************************************************\n\nTitle:Over My Dead Body  \nYEAR: 1980\nGENRE : Drama        &lt;a href=&quot;\nhttp://www.elcinema.com/work/wk1003209/&quot; rel=&quot;nofollow&quot; target=&quot;_NEW&quot;&gt;\nhttp://www.elcinema.com/work/wk1003209/&lt;/a&gt;\nOverall bit rate: 2767 kbps\nFormat version: Version 4 / Version 2\nFile size:  2.03 GiB\nDuration:  1h 45mn\nSub:English,French\n\nThe same subtitle format used on DVDs\n******************************************************\n\nVideo\nFormat: Matroska\nFormat : AVC \nFormat/Info : Advanced Video Codec \nFormat profile : &lt;a class=&quot;__cf_email__&quot; href=&quot;/cdn-cgi/l/email-protection&quot; data-cfemail=&quot;30785957580100707c041e01&quot;&gt;[email&amp;#160;protected]&lt;/a&gt;&lt;script cf-hash='f9e31' type=&quot;text/javascript&quot;&gt;\n/* &lt;![CDATA[ */!function(){try{var t=&quot;currentScript&quot;in document?document.currentScript:function(){for(var t=document.getElementsByTagName(&quot;script&quot;),e=t.length;e--;)if(t[e].getAttribute(&quot;cf-hash&quot;))return t[e]}();if(t&amp;&amp;t.previousSibling){var e,r,n,i,c=t.previousSibling,a=c.getAttribute(&quot;data-cfemail&quot;);if(a){for(e=&quot;&quot;,r=parseInt(a.substr(0,2),16),n=2;a.length-n;n+=2)i=parseInt(a.substr(n,2),16)^r,e+=String.fromCharCode(i);e=document.createTextNode(e),c.parentNode.replaceChild(e,c)}}}catch(u){}}();/* ]]&gt; */&lt;/script&gt; \nFormat settings, CABAC : Yes \nFormat settings, ReFrames : 3 frames  \nCodec ID : V_MPEG4/ISO/AVC  \nBit rate : 2568 kbps \nWidth : 696 pixels \nHeight : 464 pixels \nFrame rate : 29.970 fps \nDisplay aspect ratio :3:2 \nChroma subsampling : 4:2:0 \nBit depth : 10 bits \nScan type : Progressive \nBits/(Pixel*Frame) : 0.215 \nColor space : YUV \nScan type : Progressive \nBits/(Pixel*Frame) : 0.265 \nStream size: 1.85 GiB \n\n\nAudio \nFormat: Ac3\nBit rate :192 Kbps\nChannel(s) : 2 channels\nChannel positions:Front: L R\nSampling rate: 48.0 KHz\nBit depth: 16 bits\nCompression mode: Lossy\nStream size: 145 MiB\nLanguage : Arabic\n\n\n******************************************************\n\n10bit vs 8bit\n &lt;a href=&quot;\nhttp://img855.imageshack.us/img855/504/899r.jpg&quot; rel=&quot;nofollow&quot; target=&quot;_NEW&quot;&gt;\nhttp://img855.imageshack.us/img855/504/899r.jpg&lt;/a&gt;\n\n\n\n\nScreenshots\n &lt;a href=&quot;\nhttp://img15.imageshack.us/img15/1868/vw8v.png&quot; rel=&quot;nofollow&quot; target=&quot;_NEW&quot;&gt;\nhttp://img15.imageshack.us/img15/1868/vw8v.png&lt;/a&gt; &lt;a href=&quot;\nhttp://img341.imageshack.us/img341/949/agt.png&quot; rel=&quot;nofollow&quot; target=&quot;_NEW&quot;&gt;\nhttp://img341.imageshack.us/img341/949/agt.png&lt;/a&gt; &lt;a href=&quot;\nhttp://img834.imageshack.us/img834/1821/eyb.png&quot; rel=&quot;nofollow&quot; target=&quot;_NEW&quot;&gt;\nhttp://img834.imageshack.us/img834/1821/eyb.png&lt;/a&gt;\n","torrent":{"xt":"urn:btih:71b388934131d38f62f3ddc55c95062435c01705","amp;dn":"Ghawy+Mashakel+1980+Dvd+x264-10bit+AC3+-alrmothe","amp;tr":["udp%3A%2F%2Ftracker.openbittorrent.com%3A80","udp%3A%2F%2Fopen.demonii.com%3A1337","udp%3A%2F%2Ftracker.coppersurfer.tk%3A6969","udp%3A%2F%2Fexodus.desync.com%3A6969"],"infoHash":"71b388934131d38f62f3ddc55c95062435c01705","infoHashBuffer":{"type":"Buffer","data":[113,179,136,147,65,49,211,143,98,243,221,197,92,149,6,36,53,192,23,5]},"announce":[],"urlList":[]}}